<svg xmlns="http://www.w3.org/2000/svg" viewBox="0 0 16 16" fill="none">
    <path d="M2.816 1.35467L8 6.53867L13.1627 1.376C13.3455 1.18144 13.5997 1.06976 13.8667 1.06667C14.4558 1.06667 14.9333 1.54421 14.9333 2.13333C14.9383 2.39765 14.8341 2.65237 14.6453 2.83733L9.42933 8L14.6453 13.216C14.8211 13.3879 14.9243 13.6209 14.9333 13.8667C14.9333 14.4558 14.4558 14.9333 13.8667 14.9333C13.5918 14.9447 13.3248 14.8402 13.1307 14.6453L8 9.46133L2.82666 14.6347C2.64458 14.8227 2.39498 14.9302 2.13333 14.9333C1.54421 14.9333 1.06666 14.4558 1.06666 13.8667C1.06165 13.6023 1.16586 13.3476 1.35466 13.1627L6.57066 8L1.35466 2.784C1.17888 2.61205 1.07573 2.37909 1.06666 2.13333C1.06666 1.54421 1.54421 1.06667 2.13333 1.06667C2.38976 1.06976 2.63477 1.17312 2.816 1.35467Z" fill="currentColor"/>
</svg>