<svg viewBox="0 0 24 24" fill="none" xmlns="http://www.w3.org/2000/svg">
    <path d="M21.9064 10.3012C21.1424 8.22439 19.7154 6.77923 17.8883 6.23201V6.23196C16.1268 5.70452 14.2122 6.08557 12.5022 7.27409C12.3725 6.63382 12.1374 6.03138 11.8163 5.48533C12.697 5.39055 13.5372 5.0013 14.1804 4.35808C15.17 3.36845 15.56 1.91335 15.1984 0.560529C15.1426 0.3517 14.9794 0.188575 14.7706 0.132793C13.4179 -0.22913 11.9627 0.161153 10.9731 1.15069C10.3403 1.7835 9.95315 2.60677 9.85045 3.47181C8.95752 2.91732 7.90503 2.59655 6.77886 2.59655C6.44501 2.59655 6.17445 2.86716 6.17445 3.20096C6.17445 3.53481 6.44506 3.80537 6.77886 3.80537C8.84962 3.80537 10.607 5.17173 11.1975 7.05012C9.56591 6.01928 7.77186 5.7101 6.11164 6.20721C4.28458 6.75448 2.85761 8.19964 2.09359 10.2764C1.35198 12.2924 1.32488 14.6756 2.01718 16.9872C2.70953 19.2988 4.04224 21.2749 5.76987 22.5513C7.54972 23.8663 9.53615 24.2891 11.3633 23.7419C11.5694 23.6802 11.7732 23.6055 11.9721 23.5192C12.1891 23.6164 12.4116 23.6993 12.6366 23.7667C13.1579 23.9228 13.6922 24 14.231 24C15.5804 24 16.9579 23.5158 18.23 22.576C19.9577 21.2997 21.2904 19.3235 21.9827 17.0119C22.6751 14.7004 22.6479 12.3171 21.9064 10.3012ZM11.0528 4.27834C10.9473 3.44949 11.229 2.60424 11.8278 2.00546C12.4267 1.40667 13.2719 1.12477 14.1008 1.23033C14.2063 2.05932 13.9245 2.90443 13.3256 3.50321C12.7268 4.102 11.8815 4.3839 11.0528 4.27834ZM20.8247 16.6652C20.2069 18.7279 19.0304 20.4818 17.5118 21.6038C16.0454 22.6871 14.4371 23.0441 12.9835 22.6086C12.7342 22.534 12.4882 22.4346 12.2525 22.3132C12.1657 22.2686 12.0708 22.2462 11.9759 22.2462C11.8832 22.2462 11.7904 22.2675 11.7053 22.3102C11.4836 22.4212 11.2519 22.5133 11.0165 22.5838C7.94966 23.5026 4.43196 20.8361 3.17533 16.6403C1.91865 12.4446 3.39152 8.28373 6.45856 7.36517C8.12938 6.86487 10.0055 7.4172 11.6058 8.88078L11.6059 8.88083C11.7135 8.97964 11.8565 9.04044 12.0141 9.04044C12.1814 9.04044 12.3328 8.97242 12.4422 8.86269C14.0318 7.43206 15.889 6.89496 17.5416 7.39001V7.38996C20.6085 8.30858 22.0814 12.4695 20.8247 16.6652Z" fill="#ED3B3B"/>
    <ellipse cx="8" cy="14.5" rx="6" ry="7.5" fill="#ED3B3B"/>
    <ellipse cx="16" cy="14.5" rx="6" ry="7.5" fill="#ED3B3B"/>
    <ellipse cx="12" cy="20.5" rx="7" ry="2.5" fill="#ED3B3B"/>
</svg>
