<svg style="display:none" xmlns="http://www.w3.org/2000/svg"><symbol viewBox="-77 -19 629 629.33435" id="profile"><path d="m233.371094 294.5c81.328125 0 147.25-65.925781 147.25-147.25 0-81.320312-65.921875-147.25-147.25-147.25-81.320313 0-147.25 65.929688-147.25 147.25.0625 81.296875 65.953125 147.1875 147.25 147.25zm0-269.542969c67.542968 0 122.292968 54.75 122.292968 122.292969s-54.75 122.292969-122.292968 122.292969c-67.535156 0-122.292969-54.75-122.292969-122.292969.113281-67.492188 54.800781-122.183594 122.292969-122.292969zm0 0" fill="currentColor"></path><path d="m233.371094 331.3125c-64.011719 0-123.539063 24.832031-167.710938 70.007812-44.800781 45.796876-69.386718 108.3125-69.386718 176.203126.019531 6.882812 5.597656 12.457031 12.480468 12.476562h449.238282c6.886718-.019531 12.457031-5.59375 12.476562-12.476562 0-67.761719-24.582031-130.40625-69.378906-176.078126-44.175782-45.175781-103.699219-70.132812-167.71875-70.132812zm-211.886719 233.730469c2.746094-56.402344 24.582031-107.941407 61.894531-146.128907 39.433594-40.308593 92.71875-62.515624 149.871094-62.515624s110.4375 22.207031 149.867188 62.515624c37.4375 38.1875 59.152343 89.726563 61.898437 146.128907zm0 0" fill="currentColor"></path></symbol><symbol viewBox="0 0 64 64" id="filters"><path d="M59.59,50.42H51c-2.28-10-16.45-10-18.73,0H4.41a2,2,0,1,0,0,4H32.3c2.29,10,16.46,10,18.73,0h8.56A2,2,0,0,0,59.59,50.42ZM41.67,58c-7.38-.26-7.38-10.9,0-11.16C49.05,47.1,49.05,57.74,41.67,58Z" fill="currentColor"></path><path d="M59.59,30H28.52C26.24,20,12.07,20,9.79,30H4.41a2,2,0,1,0,0,4H9.79c2.28,10,16.45,10,18.73,0H59.59A2,2,0,0,0,59.59,30ZM19.16,37.58c-7.38-.24-7.37-10.93,0-11.16C26.53,26.66,26.53,37.35,19.16,37.58Z" fill="currentColor"></path><path d="M4.41,13.58H22.63c2.29,10,16.46,10,18.74,0H59.59a2,2,0,0,0,0-4H41.37c-2.29-10-16.46-10-18.74,0H4.41A2,2,0,0,0,4.41,13.58ZM32,6c7.38.26,7.38,10.9,0,11.16C24.62,16.9,24.62,6.26,32,6Z" fill="currentColor"></path></symbol><symbol viewBox="0 0 16 16" fill="none" id="cross"><path d="M2.816 1.35467L8 6.53867L13.1627 1.376C13.3455 1.18144 13.5997 1.06976 13.8667 1.06667C14.4558 1.06667 14.9333 1.54421 14.9333 2.13333C14.9383 2.39765 14.8341 2.65237 14.6453 2.83733L9.42933 8L14.6453 13.216C14.8211 13.3879 14.9243 13.6209 14.9333 13.8667C14.9333 14.4558 14.4558 14.9333 13.8667 14.9333C13.5918 14.9447 13.3248 14.8402 13.1307 14.6453L8 9.46133L2.82666 14.6347C2.64458 14.8227 2.39498 14.9302 2.13333 14.9333C1.54421 14.9333 1.06666 14.4558 1.06666 13.8667C1.06165 13.6023 1.16586 13.3476 1.35466 13.1627L6.57066 8L1.35466 2.784C1.17888 2.61205 1.07573 2.37909 1.06666 2.13333C1.06666 1.54421 1.54421 1.06667 2.13333 1.06667C2.38976 1.06976 2.63477 1.17312 2.816 1.35467Z" fill="currentColor"></path></symbol><symbol viewBox="0 0 12 12" fill="none" id="checkmark"><path d="M9.81128 2.25027L4.93953 8.33473L2.13068 5.52894C1.86875 5.27626 1.45265 5.27992 1.19537 5.53699C0.938087 5.79406 0.934422 6.20982 1.18731 6.47152L4.52319 9.80463C4.64828 9.92963 4.81809 9.99994 4.99499 9.99994C5.00721 10.0002 5.01967 9.99969 5.03213 9.99872C5.22149 9.98846 5.39765 9.89814 5.51615 9.74995L10.8536 3.08373C11.084 2.7959 11.0373 2.37624 10.7495 2.14627C10.4617 1.91605 10.0414 1.96268 9.81128 2.25027Z" fill="currentColor"></path></symbol><symbol viewBox="0 0 64 64" id="cart"><path d="m8.5 10.2c-.8 0-1.4-.6-1.4-1.4s.6-1.4 1.4-1.4h2.7c2.9 0 5.4 2.2 5.8 5.1l.2 1.7h38.2c.9.1 1.5.7 1.3 1.7l-4.5 19.2c-.7 3.1-3.4 5.2-6.5 5.2h-25.2l.2 1.7c.2 1.6 1.5 2.7 3.1 2.7h20.9c.8 0 1.4.6 1.4 1.4s-.6 1.4-1.4 1.4h-20.9c-2.9 0-5.4-2.2-5.8-5.1l-3.7-29.6c-.2-1.6-1.5-2.7-3.1-2.7zm9.1 6.9 2.6 20.6h25.6c1.9 0 3.5-1.2 3.9-3.1l4.1-17.6c0 .1-36.2.1-36.2.1z" fill="currentColor"></path><path d="m22.7 49c2.1 0 3.8 1.7 3.8 3.8s-1.7 3.8-3.8 3.8-3.8-1.7-3.8-3.8 1.7-3.8 3.8-3.8zm0 2.7c-.6 0-1.1.5-1.1 1 0 .6.5 1 1.1 1s1-.5 1-1c0-.6-.4-1-1-1z" fill="currentColor"></path><path d="m43.1 49c2.1 0 3.8 1.7 3.8 3.8s-1.7 3.8-3.8 3.8-3.8-1.7-3.8-3.8 1.7-3.8 3.8-3.8zm0 2.7c-.6 0-1 .5-1 1 0 .6.5 1 1 1 .6 0 1-.5 1-1 0-.6-.5-1-1-1z" fill="currentColor"></path></symbol><symbol fill="currentColor" viewBox="0 0 20 20" id="arrow"><path d="M4.516 7.548c0.436-0.446 1.043-0.481 1.576 0l3.908 3.747 3.908-3.747c0.533-0.481 1.141-0.446 1.574 0 0.436 0.445 0.408 1.197 0 1.615-0.406 0.418-4.695 4.502-4.695 4.502-0.217 0.223-0.502 0.335-0.787 0.335s-0.57-0.112-0.789-0.335c0 0-4.287-4.084-4.695-4.502s-0.436-1.17 0-1.615z"></path></symbol></svg>