<svg style="display:none" xmlns="http://www.w3.org/2000/svg"><symbol viewBox="0 0 64 64" id="cart"><path d="m8.5 10.2c-.8 0-1.4-.6-1.4-1.4s.6-1.4 1.4-1.4h2.7c2.9 0 5.4 2.2 5.8 5.1l.2 1.7h38.2c.9.1 1.5.7 1.3 1.7l-4.5 19.2c-.7 3.1-3.4 5.2-6.5 5.2h-25.2l.2 1.7c.2 1.6 1.5 2.7 3.1 2.7h20.9c.8 0 1.4.6 1.4 1.4s-.6 1.4-1.4 1.4h-20.9c-2.9 0-5.4-2.2-5.8-5.1l-3.7-29.6c-.2-1.6-1.5-2.7-3.1-2.7zm9.1 6.9 2.6 20.6h25.6c1.9 0 3.5-1.2 3.9-3.1l4.1-17.6c0 .1-36.2.1-36.2.1z" fill="currentColor"></path><path d="m22.7 49c2.1 0 3.8 1.7 3.8 3.8s-1.7 3.8-3.8 3.8-3.8-1.7-3.8-3.8 1.7-3.8 3.8-3.8zm0 2.7c-.6 0-1.1.5-1.1 1 0 .6.5 1 1.1 1s1-.5 1-1c0-.6-.4-1-1-1z" fill="currentColor"></path><path d="m43.1 49c2.1 0 3.8 1.7 3.8 3.8s-1.7 3.8-3.8 3.8-3.8-1.7-3.8-3.8 1.7-3.8 3.8-3.8zm0 2.7c-.6 0-1 .5-1 1 0 .6.5 1 1 1 .6 0 1-.5 1-1 0-.6-.5-1-1-1z" fill="currentColor"></path></symbol><symbol fill="currentColor" viewBox="0 0 20 20" id="arrow"><path d="M4.516 7.548c0.436-0.446 1.043-0.481 1.576 0l3.908 3.747 3.908-3.747c0.533-0.481 1.141-0.446 1.574 0 0.436 0.445 0.408 1.197 0 1.615-0.406 0.418-4.695 4.502-4.695 4.502-0.217 0.223-0.502 0.335-0.787 0.335s-0.57-0.112-0.789-0.335c0 0-4.287-4.084-4.695-4.502s-0.436-1.17 0-1.615z"></path></symbol></svg>